<?xml version="1.0" encoding="UTF-8"?>
<svg id="Warstwa_1" xmlns="http://www.w3.org/2000/svg" version="1.1" viewBox="0 0 1233.75 484.98">
  <!-- Generator: Adobe Illustrator 29.0.0, SVG Export Plug-In . SVG Version: 2.1.0 Build 186)  -->
  <defs>
    <style>
      .st0 {
        fill: #2d2d29;
      }

      .st1 {
        fill: #ffff8c;
      }
    </style>
  </defs>
  <path class="st0" d="M480.05,254.01c-.1.29-.15.63-.15,1.02,0,5.35,1.57,9.46,4.74,12.33,3.17,2.87,7.67,4.31,13.5,4.32,4.19,0,8.08-.87,11.66-2.61,3.58-1.75,6.55-4.12,8.91-7.14l22.86.03c-4.82,8.84-11.22,15.69-19.2,20.54-7.98,4.85-16.94,7.27-26.86,7.26-6.96,0-13.17-1.55-18.63-4.62-5.47-3.07-9.71-7.28-12.72-12.63-3.01-5.35-4.51-11.28-4.5-17.8.01-8.65,2.17-16.67,6.47-24.06,4.3-7.38,10.27-13.24,17.89-17.55,7.62-4.32,16.14-6.47,25.55-6.46,7.06,0,13.37,1.57,18.94,4.69,5.57,3.12,9.91,7.33,13.02,12.63,3.11,5.3,4.67,11.16,4.66,17.58.1,3.7-.57,7.88-2.01,12.54l-64.13-.08ZM493.43,228.43c-4.2,2.86-7.48,6.63-9.83,11.29l42.5.05c-.51-5.06-2.34-8.92-5.51-11.6-3.17-2.68-7.41-4.02-12.73-4.03-5.42,0-10.23,1.42-14.43,4.29Z"/>
  <path class="st0" d="M639.71,180.69l21.33.03-22.68,107.04-15.19-.02-1.37-7.3c-8.81,6.21-18.22,9.31-28.24,9.3-6.75,0-12.84-1.5-18.25-4.47-5.42-2.97-9.63-7.11-12.64-12.41-3.01-5.3-4.51-11.31-4.5-18.02.01-8.65,2.27-16.65,6.78-23.99,4.51-7.34,10.65-13.19,18.43-17.55,7.78-4.37,16.32-6.55,25.63-6.53,9.31.01,17.08,2.89,23.31,8.63l7.41-34.71ZM613.21,267.01c4.2-2.42,7.55-5.7,10.06-9.83,2.51-4.13,3.77-8.53,3.77-13.2,0-5.45-1.81-9.82-5.43-13.13-3.63-3.31-8.41-4.97-14.34-4.98-4.81,0-9.31,1.23-13.51,3.7-4.2,2.48-7.55,5.78-10.06,9.91-2.51,4.13-3.77,8.53-3.77,13.2,0,5.45,1.8,9.8,5.43,13.06,3.63,3.26,8.41,4.9,14.34,4.9,4.81,0,9.31-1.2,13.5-3.63Z"/>
  <path class="st0" d="M726.35,208.65l-4.16,19.1h-9.51c-6.14-.02-10.97,1.36-14.5,4.13-3.53,2.77-6.02,7.12-7.46,13.05l-9.1,42.87-21.33-.03,16.67-78.75,13.81.02,1.52,9.19c7.37-6.41,16.27-9.61,26.71-9.6h7.36Z"/>
  <path class="st0" d="M742.07,285.47c-5.83-3.07-10.35-7.31-13.56-12.71-3.21-5.4-4.82-11.41-4.81-18.02.01-8.65,2.32-16.65,6.93-23.99,4.61-7.33,10.86-13.14,18.74-17.41,7.88-4.27,16.47-6.4,25.78-6.39,7.46,0,14.08,1.55,19.86,4.62,5.77,3.07,10.27,7.28,13.49,12.63,3.22,5.35,4.82,11.38,4.81,18.09-.01,8.66-2.32,16.63-6.93,23.91-4.61,7.29-10.83,13.09-18.66,17.41-7.83,4.32-16.4,6.47-25.71,6.46-7.47,0-14.11-1.55-19.94-4.62ZM778.06,267.13c4.25-2.57,7.58-5.97,9.99-10.2,2.41-4.23,3.62-8.77,3.62-13.63,0-5.25-1.68-9.43-5.05-12.55-3.37-3.11-7.87-4.68-13.49-4.68-5.12,0-9.8,1.28-14.04,3.85-4.25,2.57-7.6,5.97-10.06,10.2-2.46,4.23-3.69,8.77-3.7,13.63,0,5.25,1.68,9.43,5.05,12.55,3.37,3.12,7.92,4.68,13.65,4.68,5.11,0,9.79-1.28,14.04-3.85Z"/>
  <path class="st0" d="M902.4,213.97c4.44,4.58,6.66,10.71,6.65,18.39,0,2.53-.31,5.45-.93,8.75-.62,3.31-2.21,10.94-4.78,22.9-1.03,5.25-2.73,13.27-5.09,24.06l-21.32-.03,5.55-25.67c1.64-7.68,2.8-13.32,3.47-16.92.67-3.6,1-6.07,1.01-7.44.01-8.07-4.13-12.11-12.41-12.12-5.73,0-10.69,1.81-14.89,5.45-4.2,3.64-7.07,8.57-8.61,14.79l-8.8,41.85-21.32-.03,16.66-78.75,14.73.02,1.98,9.63c3.79-3.69,8.27-6.58,13.43-8.66,5.17-2.08,10.56-3.12,16.19-3.12,7.87,0,14.03,2.3,18.48,6.88Z"/>
  <path class="st0" d="M941.7,254.56c-.1.29-.15.63-.15,1.02,0,5.35,1.57,9.46,4.74,12.33,3.17,2.87,7.67,4.31,13.5,4.32,4.19,0,8.08-.87,11.66-2.61,3.58-1.75,6.55-4.12,8.91-7.14l22.86.03c-4.82,8.84-11.22,15.69-19.2,20.54-7.98,4.85-16.94,7.27-26.86,7.26-6.96,0-13.17-1.55-18.63-4.62-5.47-3.07-9.71-7.28-12.72-12.63-3.01-5.35-4.51-11.28-4.5-17.8.01-8.65,2.17-16.67,6.47-24.06,4.3-7.38,10.27-13.24,17.89-17.55,7.62-4.32,16.14-6.47,25.55-6.46,7.06,0,13.37,1.57,18.94,4.69,5.57,3.12,9.91,7.33,13.03,12.63,3.11,5.3,4.67,11.16,4.66,17.58.09,3.7-.57,7.88-2.01,12.54l-64.13-.08ZM955.08,228.98c-4.2,2.86-7.47,6.63-9.83,11.29l42.5.05c-.51-5.06-2.34-8.92-5.51-11.6-3.17-2.68-7.41-4.02-12.73-4.03-5.42,0-10.23,1.42-14.43,4.29Z"/>
  <rect class="st0" x="305.77" y="87.98" width="30.86" height="185.45" transform="translate(140.11 501.7) rotate(-89.93)"/>
  <rect class="st0" x="305.66" y="211.94" width="30.87" height="185.45" transform="translate(16.05 625.4) rotate(-89.93)"/>
  <rect class="st0" x="305.73" y="149.96" width="30.89" height="185.45" transform="translate(78.1 563.57) rotate(-89.93)"/>
</svg>